<svg width="57" height="57" viewBox="0 0 57 57" fill="none" xmlns="http://www.w3.org/2000/svg">
<path d="M0.309998 0.219971H56.46V56.22H0.309998V0.219971ZM47.55 9.35997H9.31V47.36H47.55V9.35997Z" fill="black"/>
<path d="M47.55 9.35999V47.36H9.31V9.35999H47.55ZM12.19 45C22.82 45 33.19 45 43.6 45C45.33 45 45.11 43.86 45.11 42.78V12.13H12.19V45Z" fill="#df006c"/>
<path d="M12.19 45V12.13H45.11V42.8C45.11 43.88 45.33 45.02 43.6 45.02C33.21 44.99 22.82 45 12.19 45ZM22.47 31.36L40.15 41.53L40.37 41.23L31.08 30.7L35.66 26.52L18.12 15.07L17.85 15.45L27.75 26.63L22.47 31.36Z" fill="black"/>
<path d="M22.47 31.3601L27.75 26.6301L17.85 15.4401L18.12 15.0601L35.66 26.5101L31.08 30.6901L40.37 41.2201L40.15 41.5201L22.47 31.3601Z" fill="#df006c"/>
</svg>
