<svg width="57" height="57" viewBox="0 0 57 57" fill="none" xmlns="http://www.w3.org/2000/svg">
<path d="M56.4 56.23H0.470001V0.380005H56.4V56.23ZM20.08 23.53H19.46C19.1952 24.2871 19.001 25.0671 18.88 25.86C18.74 28.05 17.68 28.86 15.5 28.62C13.8357 28.4386 12.1548 28.4756 10.5 28.73C10.0915 28.8558 9.72109 29.0818 9.4224 29.3875C9.12371 29.6932 8.9063 30.0687 8.79 30.48C8.66 34.38 8.66 38.29 8.79 42.18C8.78992 43.6628 9.37484 45.0858 10.4177 46.14C11.4606 47.1941 12.8773 47.7942 14.36 47.81C23.6933 47.91 33.0267 47.91 42.36 47.81C45.81 47.76 48.06 45.29 48.14 41.81C48.23 38.08 48.08 34.34 48.14 30.6C48.14 29.05 47.61 28.6 46.14 28.6C41.81 28.6 37.49 28.6 33.14 28.6C31.73 28.6 30.14 28.22 28.96 28.77C27.78 29.32 27.24 30.83 26.37 31.96L25.52 28.77H24.95C24.23 32.23 23.5133 35.6967 22.8 39.17H22.35L20.08 23.53ZM26.55 27.84H44.18C48.18 27.84 48.18 27.84 48.18 23.97C48.18 20.97 48.18 17.97 48.18 14.97C48.18 10.97 45.82 8.57 41.87 8.55C32.97 8.49667 24.0733 8.49667 15.18 8.55C11.25 8.55 8.97 10.78 8.8 14.68C8.7 16.92 8.8 19.16 8.8 21.41C8.8 28.05 8.80001 28.01 15.46 27.83C16.97 27.83 17.69 27.34 17.95 25.78C18.47 22.78 19.19 19.78 19.82 16.72H20.11L22.55 33.44H23.12L25.22 23.35H25.57L26.55 27.84Z" fill="black"/>
<path d="M20.08 23.53L22.44 39.15H22.89C23.61 35.6767 24.3267 32.21 25.04 28.75H25.61L26.46 31.94C27.33 30.81 27.95 29.29 29.05 28.75C30.15 28.21 31.82 28.58 33.23 28.58C37.56 28.58 41.88 28.63 46.23 28.58C47.7 28.58 48.23 29.06 48.23 30.58C48.13 34.32 48.28 38.06 48.23 41.79C48.15 45.22 45.9 47.69 42.45 47.79C33.1166 47.91 23.8 47.91 14.5 47.79C13.0172 47.7742 11.6006 47.1741 10.5577 46.12C9.51482 45.0659 8.9299 43.6429 8.92998 42.16C8.74998 38.27 8.74998 34.36 8.92998 30.46C9.04198 30.0643 9.24769 29.7014 9.52968 29.402C9.81168 29.1026 10.1616 28.8755 10.55 28.74C12.2047 28.4856 13.8856 28.4487 15.55 28.63C17.73 28.85 18.79 28.06 18.93 25.87C19.051 25.0771 19.2452 24.2972 19.51 23.54L20.08 23.53Z" fill="#b7d49a"/>
<path d="M26.55 27.84L25.55 23.35H25.2L23.08 33.44H22.51L20.09 16.82H19.8C19.17 19.82 18.45 22.82 17.93 25.88C17.67 27.44 16.93 27.88 15.44 27.93C8.78001 28.11 8.78001 28.15 8.78001 21.51C8.78001 19.26 8.71001 17.02 8.78001 14.78C8.95001 10.88 11.23 8.66999 15.16 8.64999C24.0467 8.59665 32.9433 8.59665 41.85 8.64999C45.8 8.64999 48.13 11.1 48.16 15.07C48.16 18.07 48.16 21.07 48.16 24.07C48.16 27.93 48.16 27.93 44.16 27.94L26.55 27.84Z" fill="#b7d49a"/>
</svg>
