<svg width="58" height="57" viewBox="0 0 58 57" fill="none" xmlns="http://www.w3.org/2000/svg">
<path d="M0.549988 0.52002H57.25V56.66H0.549988V0.52002ZM4.42999 26.04V30.92C12.7 30.92 20.76 30.92 28.83 30.92C29.5598 30.9664 30.2905 30.8455 30.9664 30.5665C31.6423 30.2875 32.2455 29.8577 32.73 29.31C36.73 25.1 40.73 20.97 44.73 16.82L47.17 18.32L49.61 9.14001L40.47 11.58L41.59 13.58C38.87 16.33 35.99 18.78 33.68 21.68C30.87 25.21 27.56 26.37 23.12 26.11C17.02 25.77 10.85 26.04 4.45999 26.04H4.42999ZM43.85 44.13H4.44V48.84H7.31998C18.63 48.84 29.94 48.84 41.25 48.84C42.9 48.84 44.38 48.73 44.33 51.23L52.67 46.47L44.28 41.69C44.13 42.61 44.03 43.22 43.88 44.13H43.85ZM39.39 39.44L47.87 34.64L39.61 29.89C39.42 30.77 39.29 31.37 39.1 32.22H4.54999V36.76H23.77C23.91 35.76 24.03 34.87 24.23 33.38C28.05 37.47 32.59 37.14 37.05 36.92C38.74 36.79 39.71 37.21 39.39 39.44ZM33.33 40.44L25.13 35.65C24.96 36.65 24.86 37.25 24.71 38.09H4.48999V42.9C11.7 42.9 18.74 42.8 25.78 42.95C28.5287 43.1383 31.2411 42.2366 33.33 40.44Z" fill="black"/>
<path d="M4.45999 26.04C10.85 26.04 17.02 25.77 23.14 26.13C27.58 26.39 30.89 25.23 33.7 21.7C36.01 18.8 38.89 16.35 41.61 13.6L40.49 11.6L49.63 9.16003L47.19 18.34L44.75 16.84C40.75 20.99 36.75 25.12 32.75 29.33C32.2655 29.8777 31.6623 30.3075 30.9864 30.5865C30.3105 30.8655 29.5797 30.9865 28.85 30.94C20.78 30.85 12.72 30.94 4.44998 30.94L4.45999 26.04Z" fill="#f49a21"/>
<path d="M43.88 44.13C44.03 43.22 44.13 42.61 44.28 41.66L52.67 46.44L44.33 51.2C44.38 48.7 42.9 48.8 41.25 48.81C29.94 48.81 18.63 48.81 7.31998 48.81H4.44V44.1L43.88 44.13Z" fill="#f49a21"/>
<path d="M39.39 39.44C39.71 37.25 38.74 36.83 37 36.92C32.54 37.14 28 37.47 24.18 33.38C23.98 34.87 23.86 35.72 23.72 36.76H4.54999V32.22H39.15C39.34 31.37 39.47 30.77 39.66 29.89L47.92 34.64L39.39 39.44Z" fill="#f49a21"/>
<path d="M33.33 40.44C31.2411 42.2366 28.5287 43.1383 25.78 42.95C18.78 42.8 11.7 42.9 4.48999 42.9V38.09H24.71C24.86 37.25 24.96 36.64 25.13 35.65L33.33 40.44Z" fill="#f49a21"/>
</svg>
