<svg width="57" height="57" viewBox="0 0 57 57" fill="none" xmlns="http://www.w3.org/2000/svg">
<path d="M56.81 0.219971H0.0100098V56.31H56.81V0.219971Z" fill="black"/>
<path d="M19.14 24.51C23.04 24.73 27.01 24.66 28.61 29.59C26.17 28.59 23.87 28.16 21.53 29.41C25.76 29.47 29.93 29.54 32.11 34.41C30 34.29 27.95 33.24 25.6 34.76C29.85 34.84 33.71 34.87 35.65 39.07H30.65L30.53 39.58C34.31 39.58 37.64 40.41 39.76 44.58C38.06 44.15 36.69 43.9 35.38 43.46C28.83 41.25 22.92 38.08 19.15 31.97C17.1624 28.8353 15.9901 25.2533 15.74 21.55C15.52 17.83 15.93 14.07 16.08 10.33C16.08 9.52996 16.33 9.10996 17.36 9.32996C24.94 10.98 31.74 14.06 36.67 20.26C39.1851 23.4742 40.6794 27.3683 40.96 31.44C41.26 35.09 40.96 38.79 40.96 42.44C40.8889 42.9664 40.758 43.4831 40.57 43.98C38.17 40.91 37.97 38.7 39.57 33.72C38.26 34.3 38.05 34.78 37.52 38.62C36.05 36.95 34.95 35.31 35.41 33.08C35.82 31.08 36.3 29.19 36.79 27.08C34.93 28.76 34.66 31 34.34 33.46C32.59 31.68 31.56 29.9 31.98 27.58C32.34 25.58 32.82 23.58 33.23 21.63C32.23 22.29 32.23 22.29 30.68 27.99C27.23 24.58 28.56 20.94 29.84 17.26C28 18.72 27.65 20.78 27.54 23.26C24.21 20.66 25.1 17.5 25.9 14.37L25.3 14.26L23.9 18.26C21.4 16.66 21.16 14.32 22 11.6H21.48L20.37 13.73L18.48 12.18C18.63 12.98 18.73 13.51 18.83 14.08L16.83 14.82C19.66 15.04 21.08 16.76 22.05 19.4H17.89L17.75 19.96C20.97 19.96 23.98 20.28 24.98 24.18C22.95 24.06 20.96 23.28 19.14 24.51Z" fill="#476e6b"/>
</svg>
