<svg width="57" height="57" viewBox="0 0 57 57" fill="none" xmlns="http://www.w3.org/2000/svg">
<path d="M56.55 0.290039V56.29H0.429993V0.290039H56.55ZM46 32.03C46.77 28.03 46.61 27.62 43.85 26.72L43.55 23.29H29.32V20.44C30.4228 20.5218 31.5308 20.5017 32.63 20.38C33.17 20.28 33.99 19.62 34.02 19.16C34.17 17.04 34.09 14.9 34.09 12.76H23.36V20.35L27.75 20.55V23.35H13.89L13.55 26.92C10.49 27.46 10.14 28.24 11.17 31.92L13.58 32.26V34.97L10.79 35.15L8.66999 42.34H12.89L10.79 36.13H17.67L15.67 42.38H19.92L17.92 36C19.92 36 21.21 35.91 22.51 36C23.23 36.07 24.46 36.42 24.51 36.78C24.5227 37.721 24.3387 38.6542 23.97 39.52C23.69 40.4 23.29 41.24 22.85 42.3H27.36L25.23 36.17H32.07L29.97 42.27H34.25L32.25 36.09H39.25L37.18 42.34H41.5L39.5 36.06H46.24L44.24 42.29H48.45L46.25 35.09L43.6 34.86C42.55 32.37 43.78 31.8 46 32.03Z" fill="black"/>
<path d="M56.55 0.290039V56.29H0.429993V0.290039H56.55ZM46 32.03C46.77 28.03 46.61 27.62 43.85 26.72L43.55 23.29H29.32V20.44C30.4228 20.5218 31.5308 20.5017 32.63 20.38C33.17 20.28 33.99 19.62 34.02 19.16C34.17 17.04 34.09 14.9 34.09 12.76H23.36V20.35L27.75 20.55V23.35H13.89L13.55 26.92C10.49 27.46 10.14 28.24 11.17 31.92L13.58 32.26V34.97L10.79 35.15L8.66999 42.34H12.89L10.79 36.13H17.67L15.67 42.38H19.92L17.92 36C19.92 36 21.21 35.91 22.51 36C23.23 36.07 24.46 36.42 24.51 36.78C24.5227 37.721 24.3387 38.6542 23.97 39.52C23.69 40.4 23.29 41.24 22.85 42.3H27.36L25.23 36.17H32.07L29.97 42.27H34.25L32.25 36.09H39.25L37.18 42.34H41.5L39.5 36.06H46.24L44.24 42.29H48.45L46.25 35.09L43.6 34.86C42.55 32.37 43.78 31.8 46 32.03Z" fill="black"/>
<path d="M46 32.03C43.78 31.8 42.57 32.37 43.6 34.89L46.25 35.12L48.45 42.32H44.22L46.22 36.09H39.45L41.45 42.37H37.12L39.19 36.12H32.19L34.19 42.3H30L32.1 36.2H25.26L27.39 42.33H22.88C23.32 41.27 23.72 40.43 24 39.55C24.3688 38.6842 24.5527 37.751 24.54 36.81C24.54 36.45 23.26 36.1 22.54 36.03C21.24 35.9 19.92 36.03 17.95 36.03L19.95 42.41H15.71L17.71 36.16H10.82L12.92 42.37H8.70001L10.82 35.18L13.61 35V32.29L11.2 31.95C10.2 28.28 10.52 27.5 13.58 26.95L13.89 23.37H27.75V20.57L23.36 20.37V12.78H34.09C34.09 14.92 34.17 17.06 34.02 19.18C34.02 19.64 33.17 20.3 32.63 20.4C31.5309 20.5217 30.4228 20.5418 29.32 20.46V23.32H43.55L43.81 26.75C46.61 27.62 46.77 27.99 46 32.03ZM17.66 31.95C16.83 32 16.15 31.85 15.66 32.11C15.4179 32.2735 15.2145 32.4881 15.0642 32.7386C14.9139 32.9891 14.8203 33.2695 14.79 33.56C14.79 34.05 15.35 34.94 15.69 34.95C19.8 35.05 23.91 35.01 28.21 35.01L28.05 32.27L25.34 31.85V27.33L25.94 27.74L27.94 25.74C27.1536 25.2137 26.2801 24.8311 25.36 24.61C21.99 24.48 18.61 24.56 15.1 24.56V26.97L17.58 27.47L17.66 31.95ZM42.01 34.95C43.36 31.95 41.01 32.14 39.54 31.82C39.13 28.43 39.15 28.47 41.77 27.08C42.14 26.88 42.54 25.98 42.39 25.7C42.2344 25.4221 42.0208 25.1809 41.7637 24.9928C41.5066 24.8047 41.212 24.6742 40.9 24.61C37.67 24.53 34.43 24.66 31.2 24.61C29.29 24.61 28.86 25.32 29.44 26.96C32.44 27.48 32.73 27.96 31.81 31.96L29.4 32.24V34.99L42.01 34.95Z" fill="#5bbbed"/>
<path d="M17.66 31.95V27.44L15.18 26.94V24.54C18.69 24.54 22.07 24.46 25.44 24.59C26.3601 24.8111 27.2336 25.1937 28.02 25.72L26.02 27.72L25.42 27.31V31.83L28.13 32.25L28.29 34.99C23.99 34.99 19.88 34.99 15.77 34.93C15.43 34.93 14.87 34.03 14.87 33.54C14.9003 33.2494 14.9939 32.969 15.1442 32.7185C15.2945 32.468 15.4979 32.2535 15.74 32.09C16.15 31.85 16.83 32 17.66 31.95Z" fill="black"/>
<path d="M42.01 34.94H29.4V32.19L31.81 31.91C32.73 27.96 32.49 27.45 29.44 26.91C28.86 25.27 29.29 24.51 31.2 24.56C34.43 24.63 37.67 24.5 40.9 24.56C41.212 24.6242 41.5066 24.7547 41.7637 24.9428C42.0208 25.1309 42.2344 25.3721 42.39 25.65C42.54 25.93 42.14 26.83 41.77 27.03C39.15 28.44 39.13 28.44 39.55 31.81C41.02 32.13 43.36 31.91 42.01 34.94Z" fill="black"/>
</svg>
