<svg width="57" height="57" viewBox="0 0 57 57" fill="none" xmlns="http://www.w3.org/2000/svg">
<path d="M0.179993 56.57V0.51001H56.48V56.57H0.179993ZM13.13 31.32L11.08 32.19C12.98 32.54 14.32 33.69 13.58 35.43C13.11 36.53 11.4 37.09 10.58 37.65C10.63 37.65 11.44 37.76 12.24 37.77C16.9733 37.77 21.71 37.77 26.45 37.77C33.27 37.77 40.09 37.77 46.91 37.77C48.79 37.77 49.91 36.97 50.12 35.08C50.33 33.19 49.03 32.26 47.37 31.84C46.7085 31.7368 46.0394 31.6899 45.37 31.7C47.37 28.91 47.37 26.06 42 25.62C44 21.32 42.93 19.85 38 19.85C31.68 19.85 25.36 19.85 19 19.85C17.9893 20.0065 17.0061 20.3062 16.08 20.74C16.08 22.08 16.08 23.42 16.08 24.74L13.61 26.21C11.73 27.8 11.81 29.49 13.13 31.32Z" fill="black"/>
<path d="M16.15 20.83C17.0761 20.3962 18.0593 20.0965 19.07 19.94C25.39 19.86 31.71 19.89 38.07 19.94C42.98 19.94 44 21.41 42.07 25.71C47.44 26.15 47.48 29 45.44 31.79C46.1094 31.78 46.7785 31.8268 47.44 31.93C49.1 32.35 50.38 33.2 50.19 35.17C50 37.14 48.86 37.87 46.98 37.86C40.16 37.86 33.34 37.86 26.52 37.86C21.78 37.86 17.0433 37.86 12.31 37.86C11.51 37.86 10.7 37.74 10.65 37.74C11.45 37.18 13.16 36.62 13.65 35.52C14.39 33.78 13.05 32.63 11.15 32.28L13.2 31.41C15.01 31.56 17.01 31.68 17.15 29.25C17.28 27.13 15.86 26.17 13.73 26.4L16.2 24.93C17.93 25.75 19.59 26.03 20.25 23.71C20.46 22.98 20.2 21.52 19.76 21.34C18.5883 20.9932 17.3719 20.8214 16.15 20.83ZM24.65 37.83H25.84C26.45 36.83 27.65 35.83 27.52 34.94C27.3537 34.3726 27.052 33.854 26.6409 33.429C26.2298 33.0039 25.7216 32.6851 25.16 32.5C24.81 32.4256 24.4468 32.4418 24.1049 32.5471C23.7629 32.6524 23.4536 32.8434 23.2061 33.1018C22.9587 33.3603 22.7814 33.6776 22.6911 34.0239C22.6008 34.3701 22.6004 34.7336 22.69 35.08C22.89 36.04 23.97 36.89 24.65 37.82V37.83ZM21.07 34.33C20.13 33.67 19.25 32.58 18.23 32.44C16.62 32.21 15.63 33.44 15.67 35.04C15.6474 35.3768 15.7002 35.7144 15.8245 36.0282C15.9489 36.342 16.1416 36.6241 16.3888 36.854C16.6359 37.0839 16.9312 37.2558 17.2532 37.3572C17.5752 37.4586 17.9157 37.4869 18.25 37.44C19.8 37.34 20.66 36.5 21.07 34.32V34.33Z" fill="#ba2085"/>
<path d="M13.66 26.31C15.79 26.08 17.21 27.04 17.08 29.16C16.94 31.59 14.94 31.47 13.13 31.32C11.81 29.49 11.73 27.8 13.66 26.31Z" fill="black"/>
<path d="M16.15 20.83C17.3441 20.7989 18.5364 20.9404 19.69 21.25C20.13 21.43 20.39 22.89 20.18 23.62C19.52 25.94 17.86 25.62 16.13 24.84C16.13 23.51 16.14 22.17 16.15 20.83Z" fill="black"/>
<path d="M21.07 34.32C20.66 36.5 19.8 37.32 18.25 37.39C17.9192 37.436 17.5824 37.4085 17.2635 37.3094C16.9446 37.2103 16.6515 37.042 16.4051 36.8166C16.1587 36.5912 15.9651 36.3142 15.838 36.0054C15.7109 35.6966 15.6536 35.3635 15.67 35.03C15.67 33.42 16.62 32.2 18.23 32.43C19.25 32.57 20.13 33.66 21.07 34.32Z" fill="black"/>
</svg>
