<svg width="58" height="57" viewBox="0 0 58 57" fill="none" xmlns="http://www.w3.org/2000/svg">
<path d="M57.63 0.189941H0.830017V56.2799H57.63V0.189941Z" fill="black"/>
<path d="M18.63 36.32H27.06C27.06 39.77 27.06 42.9999 27 46.2299C27 46.6299 26.07 47.33 25.57 47.34C22.18 47.41 18.79 47.44 15.42 47.21C14.8977 47.1143 14.3998 46.9155 13.9551 46.6254C13.5104 46.3352 13.128 45.9595 12.83 45.52C11.23 43.11 9.89001 40.52 8.42001 38.03C7.72916 37.0057 7.36844 35.7946 7.38631 34.5593C7.40419 33.324 7.79978 32.1237 8.51998 31.1199C9.71998 29.2699 10.52 27.18 11.63 25.25C11.94 24.8768 12.3791 24.634 12.86 24.57C14.2415 24.4538 15.6102 24.2162 16.95 23.86C18.95 23.07 19.85 23.86 20.43 25.65C20.84 26.9 21.54 28.06 21.86 29.32C22.0001 30.0413 21.8908 30.7889 21.55 31.44C20.7 33 19.73 34.44 18.63 36.32Z" fill="#a9be9e"/>
<path d="M39.63 36.09C38.47 34.01 37.63 32.23 36.53 30.59C35.69 29.32 35.92 28.59 37.18 27.9C39.72 26.49 42.1799 25.01 45.0199 23.41C46.3399 25.61 47.65 27.77 48.94 29.94C49.01 30.06 49.01 30.23 49.09 30.31C52.89 34.13 50.42 37.44 48.28 40.81C47.1 42.67 46.02 44.59 44.63 46.92C44.32 45.92 44.19 45.45 44.05 44.99C44.29 47.05 43.14 47.49 41.4 47.48C38.82 47.48 36.23 47.58 33.65 47.61C33.3419 47.6398 33.0341 47.5503 32.79 47.36C31.43 45.73 30.08 44.09 28.79 42.36C28.56 42.05 28.79 41.36 28.79 40.89C28.79 40.73 29.07 40.61 29.17 40.44C31.09 37.44 33.17 34.79 37.42 36.17C38.1565 36.2536 38.9014 36.2266 39.63 36.09Z" fill="#a9be9e"/>
<path d="M32.01 23.84L29.21 17.84L24.82 25.1001C22.08 23.5601 19.52 22.1001 16.93 20.6701C15.78 20.0401 15.44 19.24 16.12 18.09C17.76 15.31 19.33 12.4801 21.12 9.80006C21.4204 9.40572 21.7978 9.07651 22.2293 8.83242C22.6607 8.58832 23.1373 8.43443 23.63 8.38006C26.93 8.19006 30.26 8.32005 33.57 8.23005C36.88 8.14005 37.89 10.7501 39.27 12.9601C40.17 14.4001 41.08 15.8501 41.95 17.3201C42.1588 17.6274 42.2379 18.0047 42.17 18.37C41.45 20.37 40.71 22.3201 39.85 24.2401C39.6967 24.4617 39.492 24.643 39.2534 24.7683C39.0149 24.8937 38.7495 24.9595 38.48 24.9601C36.21 24.6701 33.96 24.2 32.01 23.84Z" fill="#a9be9e"/>
</svg>
