<svg width="57" height="57" viewBox="0 0 57 57" fill="none" xmlns="http://www.w3.org/2000/svg">
<path d="M0.199997 56.28V0.280029H56.35V56.28H0.199997ZM35.2 38.56C38.68 37.29 38.75 34.56 38.68 31.56C38.58 27.08 38.68 22.56 38.68 18.11C38.68 14.9 36.99 13.18 33.83 13.11C30.42 13.11 27.01 13.06 23.6 13.11C19.86 13.18 18.15 14.93 18.13 18.65C18.13 22.89 18.21 27.13 18.13 31.36C18.05 34.45 18.5 37.16 21.77 38.57L16.91 46.1C19.33 47.04 20.19 45.5 20.91 44.1C22.25 41.35 24.28 40.21 27.29 40.71C27.7826 40.8001 28.2874 40.8001 28.78 40.71C32.54 39.93 35.16 41.27 36.73 44.77C37.39 46.23 38.48 46.85 40.29 46.04L35.2 38.56Z" fill="black"/>
<path d="M35.2 38.56L40.2 46.12C38.39 46.93 37.3 46.31 36.64 44.85C35.07 41.35 32.45 40.01 28.69 40.79C28.1974 40.8801 27.6926 40.8801 27.2 40.79C24.2 40.29 22.2 41.43 20.82 44.18C20.15 45.55 19.29 47.09 16.82 46.18L21.68 38.65C18.41 37.24 17.96 34.53 18.04 31.44C18.16 27.21 18.04 22.97 18.04 18.73C18.04 15.01 19.77 13.26 23.51 13.19C26.92 13.13 30.33 13.14 33.74 13.19C36.9 13.19 38.57 14.96 38.59 18.19C38.59 22.68 38.53 27.19 38.59 31.64C38.75 34.52 38.68 37.29 35.2 38.56ZM28.32 17.56C26.58 17.56 24.84 17.56 23.1 17.56C22.7466 17.5136 22.3874 17.5502 22.0507 17.6671C21.714 17.784 21.4092 17.9778 21.1606 18.2332C20.912 18.4886 20.7265 18.7985 20.6188 19.1382C20.511 19.4779 20.484 19.838 20.54 20.19C20.54 21.01 20.59 21.84 20.54 22.67C20.4699 23.0416 20.4883 23.4245 20.5936 23.7877C20.6989 24.1509 20.8882 24.4842 21.1462 24.7607C21.4042 25.0372 21.7236 25.2491 22.0787 25.3793C22.4337 25.5094 22.8145 25.5542 23.19 25.51C26.75 25.6 30.32 25.64 33.87 25.51C36.02 25.43 36.66 24.09 36.6 20.87C36.6 18.81 35.79 17.54 33.54 17.56C31.8 17.57 30.06 17.56 28.32 17.56ZM32.16 14C29.73 14 28.16 13.92 26.62 14C25.37 14.08 24.67 16 25.67 16.42C27.2867 16.9199 28.9926 17.0632 30.67 16.84C31.13 16.83 31.46 15.44 32.16 14ZM36.78 34.44L36.72 33.5C35.83 33 34.92 32.07 34.08 32.14C33.24 32.21 32.74 33.39 32.08 34.09C32.83 34.78 33.53 35.95 34.33 36.02C35.13 36.09 35.95 34.97 36.78 34.44ZM25.6 34.18C24.3 33.18 23.48 32.05 22.83 32.18C21.99 32.3 21.29 33.39 20.53 34.07C21.25 34.78 21.88 35.91 22.72 36.07C23.36 36.13 24.25 35.06 25.6 34.13V34.18Z" fill="#1fafb6"/>
<path d="M28.32 17.5601C30.06 17.5601 31.8 17.5601 33.54 17.5601C35.79 17.5601 36.54 18.8101 36.6 20.87C36.66 24.09 36.02 25.4301 33.87 25.5101C30.32 25.6501 26.75 25.6101 23.19 25.5101C22.8145 25.5543 22.4337 25.5095 22.0787 25.3793C21.7237 25.2491 21.4042 25.0372 21.1462 24.7608C20.8882 24.4843 20.6989 24.1509 20.5936 23.7877C20.4883 23.4245 20.4699 23.0417 20.54 22.6701C20.59 21.8401 20.54 21.0101 20.54 20.1901C20.484 19.8381 20.511 19.4779 20.6188 19.1382C20.7265 18.7985 20.9121 18.4886 21.1606 18.2332C21.4092 17.9779 21.714 17.784 22.0507 17.6672C22.3874 17.5503 22.7467 17.5136 23.1 17.5601C24.84 17.5401 26.55 17.5601 28.32 17.5601Z" fill="black"/>
<path d="M32.16 14C31.46 15.42 31.16 16.83 30.68 16.87C29.0026 17.0932 27.2967 16.95 25.68 16.45C24.68 16.08 25.38 14.11 26.63 14.03C28.17 13.92 29.73 14 32.16 14Z" fill="black"/>
<path d="M36.78 34.44C35.95 35.02 35.09 36.1 34.32 36.02C33.55 35.94 32.82 34.78 32.07 34.09C32.74 33.39 33.36 32.19 34.07 32.14C34.78 32.09 35.82 33 36.71 33.5L36.78 34.44Z" fill="black"/>
<path d="M25.6 34.13C24.25 35.06 23.36 36.13 22.72 35.99C21.88 35.82 21.25 34.69 20.53 33.99C21.29 33.31 21.99 32.22 22.83 32.1C23.48 32 24.3 33.12 25.6 34.13Z" fill="black"/>
</svg>
