<svg width="62" height="62" viewBox="0 0 62 62" fill="none" xmlns="http://www.w3.org/2000/svg">
<path d="M61.25 30.73C61.2303 36.7594 59.425 42.6479 56.0621 47.6524C52.6991 52.6569 47.9292 56.5532 42.3542 58.8496C36.7792 61.1461 30.6489 61.7397 24.7368 60.5557C18.8247 59.3716 13.3959 56.463 9.13517 52.1967C4.87448 47.9305 1.97293 42.4978 0.79662 36.5842C-0.379685 30.6706 0.22198 24.541 2.52569 18.969C4.82939 13.397 8.7319 8.63218 13.7408 5.2758C18.7497 1.91942 24.6406 0.121872 30.67 0.109986C34.697 0.0820027 38.6894 0.855204 42.4148 2.38459C46.1402 3.91398 49.5242 6.16901 52.3699 9.01846C55.2156 11.8679 57.4663 15.2549 58.9908 18.9823C60.5153 22.7097 61.2833 26.703 61.25 30.73ZM30.83 1.83999C23.1805 1.82393 15.8358 4.8371 10.4015 10.2208C4.96724 15.6044 1.8855 22.9207 1.83001 30.57C1.83001 45.78 13.61 59.57 30.83 59.57C47.37 59.57 59.56 46.57 59.75 30.72C59.94 14.87 46.69 1.83999 30.83 1.83999Z" fill="black"/>
<path d="M30.83 1.83996C46.69 1.83996 59.92 14.93 59.73 30.71C59.54 46.49 47.35 59.55 30.81 59.56C13.58 59.56 1.81 45.78 1.81 30.56C1.86813 22.9089 4.95378 15.5922 10.3921 10.2101C15.8304 4.82804 23.1788 1.81859 30.83 1.83996ZM30.55 56.92C44.9 57.18 57.23 45.44 57.14 30.92C57.04 15.38 45.23 5.04995 32.14 4.55995C16.86 3.99995 4.76 15.39 4.5 30.14C4.41889 33.6176 5.03189 37.0764 6.30318 40.3144C7.57446 43.5523 9.4785 46.5043 11.904 48.9977C14.3295 51.4912 17.2277 53.4761 20.4293 54.8363C23.6309 56.1966 27.0715 56.905 30.55 56.92Z" fill="#b8e0e9"/>
<path d="M30.55 56.9201C27.074 56.8985 23.6371 56.1846 20.44 54.8202C17.2429 53.4557 14.3496 51.468 11.9292 48.9731C9.50875 46.4782 7.60961 43.526 6.34263 40.2891C5.07566 37.0521 4.46625 33.5951 4.55 30.1201C4.81 15.3701 16.91 3.98006 32.19 4.54006C45.19 5.03006 57.04 15.3601 57.19 30.9001C57.19 45.4401 44.86 57.1801 30.55 56.9201ZM30.84 15.2501C30.52 15.5201 30.25 15.6301 30.18 15.8201C27.91 21.9401 25.49 28.0101 23.52 34.2201C23.0204 36.2322 23.1248 38.3469 23.82 40.3001C25.04 44.0001 29.26 45.8401 32.98 44.7601C33.9485 44.4902 34.8541 44.0314 35.6445 43.41C36.435 42.7885 37.0946 42.0168 37.5854 41.1393C38.0762 40.2618 38.3885 39.2959 38.5043 38.2971C38.62 37.2984 38.537 36.2866 38.26 35.3201C36.44 28.8201 33.89 22.5201 31.62 16.1401C31.46 15.8101 31.08 15.5701 30.8 15.2501H30.84Z" fill="black"/>
<path d="M30.8 15.25C31.08 15.57 31.46 15.81 31.58 16.14C33.85 22.52 36.4 28.82 38.22 35.32C38.497 36.2865 38.58 37.2983 38.4643 38.2971C38.3485 39.2958 38.0362 40.2618 37.5454 41.1393C37.0546 42.0168 36.3949 42.7885 35.6045 43.4099C34.8141 44.0313 33.9086 44.4902 32.94 44.76C29.22 45.84 25 44 23.78 40.3C23.0848 38.3468 22.9804 36.2321 23.48 34.22C25.48 28.01 27.87 21.94 30.14 15.82C30.21 15.63 30.48 15.52 30.8 15.25ZM32.66 25.76L32.2 25.84C32.5267 28.2 32.86 30.5667 33.2 32.94L34.28 32.74L32.66 25.76Z" fill="#b8e0e9"/>
<path d="M32.66 25.76L34.26 32.76L33.18 32.96C32.86 30.5933 32.5267 28.2267 32.18 25.86L32.66 25.76Z" fill="black"/>
</svg>
