<svg width="24" height="24" viewBox="0 0 24 24" fill="none" xmlns="http://www.w3.org/2000/svg">
<path d="M9.13406 23.2506C9.0084 23.2507 8.88424 23.2233 8.7703 23.1702C8.65637 23.1172 8.55542 23.0399 8.47456 22.9437C8.3937 22.8476 8.33488 22.7348 8.30224 22.6135C8.2696 22.4921 8.26393 22.3651 8.28562 22.2413V22.2362L9.60328 15.0006H4.50187C4.36027 15.0005 4.22157 14.9604 4.10181 14.8849C3.98205 14.8093 3.88612 14.7014 3.82512 14.5737C3.76412 14.4459 3.74054 14.3034 3.75711 14.1628C3.77368 14.0222 3.82972 13.8891 3.91875 13.779L14.1923 1.07868C14.3093 0.930238 14.4716 0.824183 14.6545 0.776732C14.8375 0.729282 15.0309 0.743048 15.2052 0.815925C15.3796 0.888802 15.5253 1.01678 15.62 1.18029C15.7147 1.34379 15.7533 1.53383 15.7298 1.72134C15.7298 1.7354 15.7261 1.74899 15.7237 1.76306L14.4014 9.00056H19.5019C19.6435 9.00057 19.7822 9.04067 19.9019 9.11622C20.0217 9.19177 20.1176 9.29967 20.1786 9.42746C20.2396 9.55525 20.2632 9.69769 20.2466 9.83832C20.2301 9.97895 20.174 10.112 20.085 10.2221L9.81 22.9224C9.72926 23.0244 9.62656 23.1069 9.50952 23.1637C9.39249 23.2205 9.26415 23.2502 9.13406 23.2506V23.2506Z" fill="white"/>
</svg>
