<svg width="24" height="24" viewBox="0 0 24 24" fill="none" xmlns="http://www.w3.org/2000/svg">
<path d="M12.2602 4.7475C12.1904 4.68074 12.0975 4.64348 12.0009 4.64348C11.9044 4.64348 11.8115 4.68074 11.7417 4.7475L3.11203 12.9914C3.07538 13.0265 3.04622 13.0686 3.02632 13.1152C3.00642 13.1619 2.99619 13.2121 2.99625 13.2628L2.99484 21C2.99484 21.3978 3.15288 21.7794 3.43418 22.0607C3.71549 22.342 4.09702 22.5 4.49484 22.5H8.99953C9.19844 22.5 9.38921 22.421 9.52986 22.2803C9.67051 22.1397 9.74953 21.9489 9.74953 21.75V15.375C9.74953 15.2755 9.78904 15.1802 9.85936 15.1098C9.92969 15.0395 10.0251 15 10.1245 15H13.8745C13.974 15 14.0694 15.0395 14.1397 15.1098C14.21 15.1802 14.2495 15.2755 14.2495 15.375V21.75C14.2495 21.9489 14.3285 22.1397 14.4692 22.2803C14.6099 22.421 14.8006 22.5 14.9995 22.5H19.5023C19.9002 22.5 20.2817 22.342 20.563 22.0607C20.8443 21.7794 21.0023 21.3978 21.0023 21V13.2628C21.0024 13.2121 20.9922 13.1619 20.9723 13.1152C20.9524 13.0686 20.9232 13.0265 20.8866 12.9914L12.2602 4.7475Z" fill="white"/>
<path d="M23.0109 11.4445L19.5047 8.09016V3C19.5047 2.80109 19.4257 2.61032 19.285 2.46967C19.1444 2.32902 18.9536 2.25 18.7547 2.25H16.5047C16.3058 2.25 16.115 2.32902 15.9744 2.46967C15.8337 2.61032 15.7547 2.80109 15.7547 3V4.5L13.0397 1.90406C12.7856 1.64719 12.4078 1.5 11.9995 1.5C11.5927 1.5 11.2158 1.64719 10.9617 1.90453L0.991404 11.4436C0.699842 11.7248 0.663279 12.1875 0.928592 12.4922C0.995216 12.5691 1.07679 12.6316 1.16836 12.676C1.25992 12.7204 1.35956 12.7457 1.4612 12.7503C1.56285 12.755 1.66438 12.7389 1.75961 12.7031C1.85484 12.6672 1.94179 12.6124 2.01515 12.5419L11.7417 3.2475C11.8115 3.18074 11.9044 3.14348 12.0009 3.14348C12.0975 3.14348 12.1904 3.18074 12.2602 3.2475L21.9877 12.5419C22.1309 12.6793 22.3229 12.7543 22.5214 12.7504C22.7199 12.7465 22.9087 12.6641 23.0466 12.5212C23.3344 12.2231 23.3105 11.7309 23.0109 11.4445Z" fill="white"/>
</svg>
