<svg width="24" height="24" viewBox="0 0 24 24" fill="none" xmlns="http://www.w3.org/2000/svg">
<path d="M11.9882 5.25C13.438 5.25 14.6132 4.07475 14.6132 2.625C14.6132 1.17525 13.438 0 11.9882 0C10.5385 0 9.36323 1.17525 9.36323 2.625C9.36323 4.07475 10.5385 5.25 11.9882 5.25Z" fill="white"/>
<path d="M18.4982 13.0266L18.014 11.4136C18.014 11.4136 18.014 11.4103 18.014 11.4084L16.9612 7.89938H16.9589L16.8412 7.50328C16.712 7.06895 16.4461 6.68795 16.0829 6.41699C15.7197 6.14604 15.2787 5.99962 14.8256 5.99953H9.20057C8.74739 5.99939 8.3063 6.14572 7.94306 6.41671C7.57983 6.6877 7.31391 7.06884 7.18495 7.50328L7.06729 7.89938H7.06448L6.01166 11.4084C6.01166 11.4084 6.01166 11.4117 6.01166 11.4136L5.52557 13.0266C5.37932 13.5136 5.63338 14.0419 6.11479 14.205C6.23405 14.2456 6.36027 14.2617 6.48591 14.2525C6.61155 14.2432 6.73403 14.2087 6.84604 14.151C6.95805 14.0934 7.05729 14.0137 7.13783 13.9168C7.21836 13.82 7.27855 13.7078 7.31479 13.5872L8.61557 9.25219C8.64527 9.16936 8.70316 9.09962 8.77909 9.05516C8.85503 9.0107 8.94418 8.99436 9.03094 9.009C9.11771 9.02364 9.19656 9.06832 9.25371 9.13523C9.31086 9.20214 9.34265 9.28701 9.34354 9.375C9.34352 9.40036 9.34084 9.42566 9.33557 9.45047L7.28573 16.2844C7.25211 16.3964 7.24515 16.5146 7.26538 16.6298C7.28561 16.7449 7.33248 16.8538 7.40224 16.9476C7.47201 17.0414 7.56274 17.1176 7.6672 17.1701C7.77166 17.2226 7.88694 17.25 8.00385 17.25H9.36323V22.6261C9.36323 23.3977 9.85682 24 10.4882 24C11.1196 24 11.6132 23.3977 11.6132 22.6261V17.25H12.3632V22.6261C12.3632 23.3977 12.8568 24 13.4882 24C14.1196 24 14.6132 23.3977 14.6132 22.6261V17.25H16.0195C16.1364 17.25 16.2518 17.2227 16.3563 17.1703C16.4608 17.1178 16.5516 17.0416 16.6214 16.9478C16.6912 16.8539 16.7381 16.7451 16.7584 16.6299C16.7787 16.5147 16.7717 16.3964 16.7381 16.2844L14.6878 9.44953C14.6826 9.42502 14.6801 9.40004 14.6803 9.375C14.6807 9.28674 14.7123 9.20148 14.7695 9.13422C14.8266 9.06696 14.9057 9.02202 14.9927 9.00729C15.0797 8.99256 15.1691 9.009 15.2452 9.05371C15.3213 9.09842 15.3792 9.16853 15.4087 9.25172L16.709 13.5867C16.7454 13.7072 16.8057 13.8191 16.8862 13.9158C16.9668 14.0125 17.066 14.092 17.178 14.1495C17.2899 14.207 17.4123 14.2414 17.5378 14.2506C17.6633 14.2598 17.7894 14.2437 17.9085 14.2031C18.3899 14.0419 18.644 13.5136 18.4982 13.0266Z" fill="white"/>
</svg>
