<svg width="24" height="24" viewBox="0 0 24 24" fill="none" xmlns="http://www.w3.org/2000/svg">
<path d="M18.1875 20.9999C17.3346 20.9999 16.5008 20.747 15.7916 20.2731C15.0824 19.7993 14.5297 19.1258 14.2033 18.3377C13.8769 17.5497 13.7915 16.6826 13.9579 15.8461C14.1243 15.0096 14.535 14.2411 15.1381 13.638C15.7412 13.0349 16.5096 12.6242 17.3462 12.4578C18.1827 12.2914 19.0498 12.3768 19.8378 12.7032C20.6258 13.0296 21.2994 13.5823 21.7732 14.2915C22.2471 15.0007 22.5 15.8345 22.5 16.6874C22.4988 17.8308 22.044 18.927 21.2355 19.7355C20.427 20.5439 19.3309 20.9987 18.1875 20.9999ZM18.1875 13.8749C17.6312 13.8749 17.0875 14.0399 16.625 14.3489C16.1624 14.658 15.802 15.0972 15.5891 15.6111C15.3762 16.125 15.3205 16.6905 15.429 17.2361C15.5376 17.7817 15.8054 18.2828 16.1988 18.6762C16.5921 19.0695 17.0932 19.3374 17.6388 19.4459C18.1844 19.5544 18.7499 19.4987 19.2638 19.2858C19.7777 19.073 20.217 18.7125 20.526 18.25C20.8351 17.7875 21 17.2437 21 16.6874C20.9991 15.9418 20.7025 15.2269 20.1753 14.6996C19.648 14.1724 18.9332 13.8758 18.1875 13.8749Z" fill="white"/>
<path d="M5.8125 20.9999C4.95957 20.9999 4.12579 20.747 3.41661 20.2731C2.70742 19.7993 2.15467 19.1258 1.82827 18.3377C1.50187 17.5497 1.41647 16.6826 1.58287 15.8461C1.74926 15.0096 2.15999 14.2411 2.7631 13.638C3.36622 13.0349 4.13463 12.6242 4.97117 12.4578C5.80772 12.2914 6.67482 12.3768 7.46282 12.7032C8.25083 13.0296 8.92435 13.5823 9.39822 14.2915C9.87208 15.0007 10.125 15.8345 10.125 16.6874C10.1238 17.8308 9.66901 18.927 8.86053 19.7355C8.05205 20.5439 6.95587 20.9987 5.8125 20.9999ZM5.8125 13.8749C5.25624 13.8749 4.71247 14.0399 4.24996 14.3489C3.78745 14.658 3.42696 15.0972 3.21409 15.6111C3.00122 16.125 2.94552 16.6905 3.05404 17.2361C3.16256 17.7817 3.43043 18.2828 3.82376 18.6762C4.2171 19.0695 4.71824 19.3374 5.26381 19.4459C5.80938 19.5544 6.37488 19.4987 6.8888 19.2858C7.40272 19.073 7.84197 18.7125 8.15101 18.25C8.46005 17.7875 8.625 17.2437 8.625 16.6874C8.62413 15.9418 8.32754 15.2269 7.80028 14.6996C7.27302 14.1724 6.55816 13.8758 5.8125 13.8749Z" fill="white"/>
<path d="M15 5.99993C15.1976 6.00061 15.3933 5.96212 15.5759 5.88669C15.7585 5.81126 15.9244 5.70038 16.0639 5.56045C16.2033 5.42053 16.3137 5.25435 16.3886 5.07151C16.4634 4.88867 16.5013 4.6928 16.5 4.49524C16.5022 4.29866 16.4652 4.10362 16.3911 3.92152C16.317 3.73942 16.2074 3.57391 16.0686 3.43468C15.9298 3.29545 15.7646 3.18529 15.5828 3.11064C15.4009 3.036 15.206 2.99836 15.0094 2.99993C14.8124 2.99931 14.6172 3.0375 14.435 3.11231C14.2528 3.18713 14.0871 3.2971 13.9473 3.43595C13.8076 3.5748 13.6966 3.73982 13.6207 3.92157C13.5447 4.10332 13.5053 4.29825 13.5047 4.49524C13.5041 4.69222 13.5423 4.8874 13.6171 5.06962C13.6919 5.25184 13.8019 5.41755 13.9407 5.55727C14.0796 5.69699 14.2446 5.808 14.4263 5.88395C14.6081 5.9599 14.803 5.99931 15 5.99993Z" fill="white"/>
<path d="M17.2289 8.99993H15.1777C15.144 8.99993 15.111 8.99088 15.082 8.97373C15.0531 8.95657 15.0293 8.93195 15.0131 8.90243L13.5253 6.17571C13.4205 5.97307 13.2694 5.79797 13.0843 5.66457C12.8993 5.53117 12.6854 5.44322 12.46 5.40785C12.2346 5.37247 12.004 5.39067 11.787 5.46095C11.5699 5.53124 11.3725 5.65165 11.2106 5.81243L7.93594 9.11242C7.66083 9.39322 7.50467 9.76934 7.5 10.1624C7.5 10.9781 8.09063 11.2687 8.36719 11.4327C9.70313 12.2024 10.6439 12.7654 11.16 13.0781C11.1874 13.0948 11.2101 13.1182 11.2259 13.1462C11.2416 13.1742 11.2499 13.2058 11.25 13.2379V16.4779C11.25 16.8815 11.5603 17.2279 11.9639 17.248C12.0652 17.2529 12.1665 17.2372 12.2616 17.2018C12.3567 17.1664 12.4436 17.1121 12.5171 17.0422C12.5905 16.9723 12.6491 16.8882 12.6891 16.7949C12.7292 16.7017 12.7499 16.6014 12.75 16.4999V12.4687C12.7501 12.3496 12.7218 12.2322 12.6675 12.1263C12.6132 12.0203 12.5345 11.9288 12.4378 11.8593L10.7034 10.612C10.6817 10.5964 10.6635 10.5763 10.6501 10.5531C10.6367 10.5299 10.6285 10.5042 10.6259 10.4775C10.6233 10.4509 10.6265 10.424 10.6352 10.3987C10.6439 10.3733 10.6579 10.3502 10.6763 10.3307L12.645 8.23118C12.6652 8.20957 12.6902 8.19305 12.718 8.18296C12.7458 8.17287 12.7756 8.16949 12.8049 8.1731C12.8342 8.17671 12.8623 8.18721 12.8868 8.20374C12.9113 8.22027 12.9316 8.24236 12.9459 8.26821L13.9688 10.1141C14.0338 10.2312 14.1289 10.3286 14.2443 10.3965C14.3597 10.4643 14.4911 10.5 14.625 10.4999H17.25C17.3516 10.5 17.4522 10.4795 17.5456 10.4396C17.639 10.3997 17.7234 10.3412 17.7935 10.2677C17.8636 10.1941 17.9181 10.1071 17.9536 10.0119C17.9891 9.91674 18.0049 9.81532 18 9.71383C17.9803 9.31024 17.6325 8.99993 17.2289 8.99993Z" fill="white"/>
</svg>
