<svg width="38" height="38" viewBox="0 0 38 38" fill="none" xmlns="http://www.w3.org/2000/svg">
<circle cx="19" cy="19" r="19" fill="url(#paint0_linear_27_2549)"/>
<path d="M28.7958 11.757C27.3274 15.4183 23.647 20.3956 20.5672 22.8651L18.6888 24.3716C18.4505 24.5432 18.2121 24.6958 17.9451 24.8007C17.9451 24.629 17.9356 24.4383 17.907 24.2572C17.8021 23.4563 17.4398 22.7125 16.8009 22.0737C16.1526 21.4253 15.3612 21.0439 14.5507 20.939C14.36 20.9295 14.1693 20.9104 13.9786 20.9295C14.0835 20.6339 14.2456 20.3574 14.4458 20.1286L15.9333 18.2502C18.3933 15.1704 23.3895 11.4709 27.0414 10.0121C27.604 9.8023 28.1474 9.95486 28.4907 10.3076C28.853 10.6604 29.0247 11.2039 28.7958 11.757Z" stroke="white" stroke-width="1.43023" stroke-linecap="round" stroke-linejoin="round"/>
<path d="M17.9449 24.8006C17.9449 25.8494 17.5444 26.8506 16.7912 27.6134C16.2095 28.195 15.4182 28.5955 14.4742 28.7194L12.1286 28.9769C10.8509 29.1199 9.75443 28.0329 9.90699 26.7362L10.1644 24.3906C10.3933 22.3025 12.1382 20.9676 13.9879 20.9294C14.1786 20.9199 14.3789 20.9294 14.56 20.939C15.3705 21.0439 16.1619 21.4157 16.8102 22.0736C17.4491 22.7125 17.8114 23.4562 17.9163 24.2571C17.9258 24.4383 17.9449 24.6194 17.9449 24.8006Z" stroke="white" stroke-width="1.43023" stroke-linecap="round" stroke-linejoin="round"/>
<path d="M21.5777 21.7971C21.5777 19.3085 19.5563 17.2871 17.0677 17.2871" stroke="white" stroke-width="1.43023" stroke-linecap="round" stroke-linejoin="round"/>
<path d="M27.1846 20.138L27.8902 20.834C29.3109 22.2547 29.3109 23.6563 27.8902 25.077L25.0679 27.8994C23.6663 29.301 22.2456 29.301 20.8439 27.8994" stroke="white" stroke-width="1.43023" stroke-linecap="round"/>
<path d="M10.9654 18.0213C9.56378 16.6006 9.56378 15.199 10.9654 13.7783L13.7877 10.956C15.1894 9.55433 16.6101 9.55433 18.0117 10.956L18.7173 11.6615" stroke="white" stroke-width="1.43023" stroke-linecap="round"/>
<path d="M18.7268 11.6711L15.1989 15.199" stroke="white" stroke-width="1.43023" stroke-linecap="round"/>
<path d="M27.1846 20.138L24.3622 22.9508" stroke="white" stroke-width="1.43023" stroke-linecap="round"/>
<defs>
<linearGradient id="paint0_linear_27_2549" x1="5.64243" y1="33.9697" x2="42.2606" y2="8.98182" gradientUnits="userSpaceOnUse">
<stop stop-color="#163583"/>
<stop offset="0.492863" stop-color="#2068D5"/>
<stop offset="0.945122" stop-color="#6CB3DB"/>
</linearGradient>
</defs>
</svg>
