<svg width="24" height="24" viewBox="0 0 24 24" fill="none" xmlns="http://www.w3.org/2000/svg">
<path d="M11.894 9.49359C11.9254 9.51537 11.9626 9.52704 12.0008 9.52704C12.039 9.52704 12.0763 9.51537 12.1077 9.49359C12.9778 8.8983 13.9693 8.50368 15.0105 8.33823C16.0516 8.17277 17.1166 8.24062 18.1283 8.53688C18.157 8.5455 18.1873 8.54715 18.2167 8.54168C18.2461 8.53621 18.2738 8.52378 18.2974 8.50542C18.3211 8.48707 18.34 8.46333 18.3525 8.43618C18.3651 8.40903 18.371 8.37927 18.3698 8.34938C18.2258 4.96219 15.4227 2.25 12.0008 2.25C8.57897 2.25 5.77585 4.96219 5.63194 8.35078C5.63067 8.38067 5.63657 8.41044 5.64915 8.43759C5.66173 8.46473 5.68063 8.48848 5.70426 8.50683C5.72789 8.52518 5.75557 8.53762 5.78499 8.54309C5.8144 8.54856 5.8447 8.54691 5.87335 8.53828C6.88512 8.24203 7.95006 8.17418 8.99124 8.33963C10.0324 8.50508 11.0239 8.89971 11.894 9.495V9.49359Z" fill="white"/>
<path d="M18.9998 9.96375C18.789 11.0537 18.3274 12.0795 17.6515 12.9601C16.9755 13.8407 16.1038 14.5518 15.1054 15.037C15.0728 15.0525 15.0454 15.0771 15.0265 15.1078C15.0075 15.1385 14.9978 15.1739 14.9985 15.21C14.9985 15.2648 15.0008 15.3197 15.0008 15.375C15.0013 16.339 14.8056 17.293 14.4256 18.179C14.0457 19.0649 13.4894 19.8643 12.7907 20.5284C12.7698 20.5482 12.7537 20.5724 12.7437 20.5993C12.7337 20.6263 12.7299 20.6551 12.7328 20.6837C12.7357 20.7123 12.7452 20.7398 12.7604 20.7642C12.7756 20.7886 12.7963 20.8091 12.8207 20.8242C13.8163 21.4309 14.96 21.7512 16.1258 21.75C19.5041 21.75 22.4118 18.9244 22.5008 15.5466C22.5313 14.3917 22.2475 13.2503 21.6799 12.2442C21.1122 11.238 20.2819 10.405 19.2777 9.83391C19.2516 9.81893 19.2223 9.81045 19.1923 9.80918C19.1622 9.80792 19.1323 9.8139 19.105 9.82663C19.0778 9.83937 19.054 9.85847 19.0356 9.88234C19.0173 9.9062 19.005 9.93413 18.9998 9.96375Z" fill="white"/>
<path d="M18.3088 9.54703C18.3155 9.5033 18.3065 9.45862 18.2834 9.42087C18.2604 9.38313 18.2247 9.35476 18.1827 9.34078C17.3005 9.03993 16.363 8.93643 15.4364 9.0376C14.5098 9.13876 13.6167 9.44212 12.8202 9.92625C12.796 9.9414 12.7755 9.96189 12.7604 9.98617C12.7452 10.0105 12.7359 10.0379 12.733 10.0663C12.7301 10.0948 12.7337 10.1235 12.7437 10.1503C12.7536 10.1772 12.7695 10.2014 12.7902 10.2211C13.8658 11.2446 14.5947 12.5786 14.8748 14.0367C14.8803 14.0662 14.8928 14.0939 14.9113 14.1176C14.9298 14.1412 14.9537 14.1601 14.981 14.1726C15.0082 14.185 15.0381 14.1908 15.0681 14.1894C15.0981 14.1879 15.1272 14.1793 15.1532 14.1642C15.9949 13.6843 16.7164 13.0192 17.2631 12.2193C17.8098 11.4193 18.1674 10.5056 18.3088 9.54703Z" fill="white"/>
<path d="M9.00085 15.375C9.00085 15.3197 9.00085 15.2648 9.00319 15.21C9.0039 15.1739 8.99419 15.1385 8.97524 15.1078C8.95628 15.0771 8.92888 15.0525 8.89632 15.037C7.8979 14.5518 7.0262 13.8407 6.35025 12.9601C5.6743 12.0795 5.21267 11.0537 5.00194 9.96375C4.99655 9.93447 4.98426 9.90689 4.96609 9.8833C4.94792 9.85971 4.92439 9.84079 4.89745 9.8281C4.87052 9.81541 4.84094 9.80931 4.81118 9.81033C4.78142 9.81134 4.75233 9.81942 4.72632 9.83391C3.7221 10.405 2.89183 11.238 2.32416 12.2442C1.75649 13.2503 1.47274 14.3917 1.50319 15.5466C1.5946 18.9244 4.50085 21.75 7.87819 21.75C9.04329 21.7508 10.1861 21.4305 11.181 20.8242C11.2054 20.8091 11.2261 20.7886 11.2413 20.7642C11.2565 20.7398 11.266 20.7123 11.2689 20.6837C11.2718 20.6551 11.268 20.6263 11.258 20.5993C11.248 20.5724 11.2319 20.5482 11.211 20.5284C10.5123 19.8643 9.95602 19.0649 9.57606 18.179C9.19609 17.293 9.00039 16.339 9.00085 15.375Z" fill="white"/>
<path d="M7.87585 9C7.17612 8.99938 6.48111 9.11453 5.81898 9.34078C5.777 9.35476 5.74133 9.38313 5.71825 9.42087C5.69518 9.45862 5.68619 9.5033 5.69288 9.54703C5.83432 10.5056 6.19192 11.4193 6.73863 12.2193C7.28533 13.0192 8.00683 13.6843 8.84851 14.1642C8.87445 14.1793 8.90364 14.1879 8.93361 14.1894C8.96357 14.1908 8.99345 14.185 9.02073 14.1726C9.04802 14.1601 9.0719 14.1412 9.09038 14.1176C9.10886 14.0939 9.1214 14.0662 9.12694 14.0367C9.40703 12.5786 10.1359 11.2446 11.2115 10.2211C11.2322 10.2014 11.2481 10.1772 11.258 10.1503C11.268 10.1235 11.2716 10.0948 11.2687 10.0663C11.2658 10.0379 11.2565 10.0105 11.2413 9.98617C11.2262 9.96189 11.2057 9.9414 11.1815 9.92625C10.1858 9.31922 9.04196 8.9987 7.87585 9Z" fill="white"/>
<path d="M12.0008 15.75C11.3231 15.7505 10.6487 15.6539 9.99835 15.4631C9.9697 15.4545 9.9394 15.4528 9.90999 15.4583C9.88057 15.4638 9.85289 15.4762 9.82926 15.4946C9.80563 15.5129 9.78674 15.5367 9.77415 15.5638C9.76157 15.591 9.75567 15.6207 9.75694 15.6506C9.79329 16.4997 9.99943 17.3329 10.3632 18.1009C10.7269 18.869 11.2409 19.5564 11.8748 20.1225C11.9093 20.1539 11.9542 20.1712 12.0008 20.1712C12.0475 20.1712 12.0924 20.1539 12.1269 20.1225C12.7608 19.5564 13.2748 18.869 13.6385 18.1009C14.0023 17.3329 14.2084 16.4997 14.2448 15.6506C14.246 15.6207 14.2401 15.591 14.2275 15.5638C14.215 15.5367 14.1961 15.5129 14.1724 15.4946C14.1488 15.4762 14.1211 15.4638 14.0917 15.4583C14.0623 15.4528 14.032 15.4545 14.0033 15.4631C13.353 15.6539 12.6786 15.7505 12.0008 15.75Z" fill="white"/>
<path d="M14.1838 14.453C13.9672 12.9769 13.2394 11.6236 12.1274 10.6289C12.0926 10.5979 12.0475 10.5807 12.0008 10.5807C11.9542 10.5807 11.9091 10.5979 11.8743 10.6289C10.7623 11.6236 10.0345 12.9769 9.81788 14.453C9.81119 14.4967 9.82018 14.5414 9.84325 14.5791C9.86633 14.6169 9.902 14.6452 9.94397 14.6592C11.2776 15.1136 12.7241 15.1136 14.0577 14.6592C14.0997 14.6452 14.1354 14.6169 14.1584 14.5791C14.1815 14.5414 14.1905 14.4967 14.1838 14.453Z" fill="white"/>
</svg>
